<svg width="21" height="21" viewBox="0 0 21 21" fill="none" xmlns="http://www.w3.org/2000/svg">
<path d="M17.6863 16.5779H4.35295V3.24459C4.35295 3.02357 4.26515 2.81161 4.10887 2.65533C3.95259 2.49905 3.74063 2.41125 3.51961 2.41125C3.2986 2.41125 3.08664 2.49905 2.93036 2.65533C2.77408 2.81161 2.68628 3.02357 2.68628 3.24459V17.4113C2.68628 17.6323 2.77408 17.8442 2.93036 18.0005C3.08664 18.1568 3.2986 18.2446 3.51961 18.2446H17.6863C17.9073 18.2446 18.1193 18.1568 18.2755 18.0005C18.4318 17.8442 18.5196 17.6323 18.5196 17.4113C18.5196 17.1902 18.4318 16.9783 18.2755 16.822C18.1193 16.6657 17.9073 16.5779 17.6863 16.5779Z" fill="#464255"/>
<path d="M6.01953 9.91134V14.078C6.01953 14.299 6.10733 14.511 6.26361 14.6673C6.41989 14.8235 6.63185 14.9113 6.85286 14.9113C7.07388 14.9113 7.28584 14.8235 7.44212 14.6673C7.5984 14.511 7.6862 14.299 7.6862 14.078V9.91134C7.6862 9.69032 7.5984 9.47836 7.44212 9.32208C7.28584 9.1658 7.07388 9.078 6.85286 9.078C6.63185 9.078 6.41989 9.1658 6.26361 9.32208C6.10733 9.47836 6.01953 9.69032 6.01953 9.91134Z" fill="#464255"/>
<path d="M9.35303 5.74459V14.0779C9.35303 14.2989 9.44082 14.5109 9.59711 14.6672C9.75339 14.8235 9.96535 14.9113 10.1864 14.9113C10.4074 14.9113 10.6193 14.8235 10.7756 14.6672C10.9319 14.5109 11.0197 14.2989 11.0197 14.0779V5.74459C11.0197 5.52357 10.9319 5.31161 10.7756 5.15533C10.6193 4.99905 10.4074 4.91125 10.1864 4.91125C9.96535 4.91125 9.75339 4.99905 9.59711 5.15533C9.44082 5.31161 9.35303 5.52357 9.35303 5.74459Z" fill="#464255"/>
<path d="M12.6863 7.41134V14.078C12.6863 14.299 12.7741 14.511 12.9304 14.6673C13.0866 14.8235 13.2986 14.9113 13.5196 14.9113C13.7406 14.9113 13.9526 14.8235 14.1089 14.6673C14.2652 14.511 14.3529 14.299 14.3529 14.078V7.41134C14.3529 7.19032 14.2652 6.97836 14.1089 6.82208C13.9526 6.6658 13.7406 6.578 13.5196 6.578C13.2986 6.578 13.0866 6.6658 12.9304 6.82208C12.7741 6.97836 12.6863 7.19032 12.6863 7.41134Z" fill="#464255"/>
<path d="M16.0195 3.24459V14.0779C16.0195 14.2989 16.1073 14.5109 16.2636 14.6672C16.4199 14.8235 16.6319 14.9113 16.8529 14.9113C17.0739 14.9113 17.2858 14.8235 17.4421 14.6672C17.5984 14.5109 17.6862 14.2989 17.6862 14.0779V3.24459C17.6862 3.02357 17.5984 2.81161 17.4421 2.65533C17.2858 2.49905 17.0739 2.41125 16.8529 2.41125C16.6319 2.41125 16.4199 2.49905 16.2636 2.65533C16.1073 2.81161 16.0195 3.02357 16.0195 3.24459Z" fill="#464255"/>
</svg>
