<svg width="16" height="17" viewBox="0 0 16 17" fill="none" xmlns="http://www.w3.org/2000/svg">
<path d="M3.18628 16.2447H13.1863C13.8493 16.2447 14.4852 15.9813 14.954 15.5125C15.4229 15.0436 15.6863 14.4078 15.6863 13.7447V3.74471C15.6863 3.08167 15.4229 2.44578 14.954 1.97694C14.4852 1.5081 13.8493 1.24471 13.1863 1.24471H12.3529C12.3529 1.0237 12.2651 0.811735 12.1089 0.655455C11.9526 0.499174 11.7406 0.411377 11.5196 0.411377C11.2986 0.411377 11.0866 0.499174 10.9304 0.655455C10.7741 0.811735 10.6863 1.0237 10.6863 1.24471H5.68628C5.68628 1.0237 5.59848 0.811735 5.4422 0.655455C5.28592 0.499174 5.07396 0.411377 4.85295 0.411377C4.63193 0.411377 4.41997 0.499174 4.26369 0.655455C4.10741 0.811735 4.01961 1.0237 4.01961 1.24471H3.18628C2.52324 1.24471 1.88735 1.5081 1.41851 1.97694C0.949671 2.44578 0.686279 3.08167 0.686279 3.74471V13.7447C0.686279 14.4078 0.949671 15.0436 1.41851 15.5125C1.88735 15.9813 2.52324 16.2447 3.18628 16.2447ZM2.35295 3.74471C2.35295 3.5237 2.44074 3.31174 2.59702 3.15546C2.7533 2.99917 2.96527 2.91138 3.18628 2.91138H4.01961V3.74471C4.01961 3.96572 4.10741 4.17769 4.26369 4.33397C4.41997 4.49025 4.63193 4.57804 4.85295 4.57804C5.07396 4.57804 5.28592 4.49025 5.4422 4.33397C5.59848 4.17769 5.68628 3.96572 5.68628 3.74471V2.91138H10.6863V3.74471C10.6863 3.96572 10.7741 4.17769 10.9304 4.33397C11.0866 4.49025 11.2986 4.57804 11.5196 4.57804C11.7406 4.57804 11.9526 4.49025 12.1089 4.33397C12.2651 4.17769 12.3529 3.96572 12.3529 3.74471V2.91138H13.1863C13.4073 2.91138 13.6193 2.99917 13.7755 3.15546C13.9318 3.31174 14.0196 3.5237 14.0196 3.74471V6.24471H2.35295V3.74471ZM2.35295 7.91138H14.0196V13.7447C14.0196 13.9657 13.9318 14.1777 13.7755 14.334C13.6193 14.4902 13.4073 14.578 13.1863 14.578H3.18628C2.96527 14.578 2.7533 14.4902 2.59702 14.334C2.44074 14.1777 2.35295 13.9657 2.35295 13.7447V7.91138Z" fill="#464255"/>
</svg>
