<svg width="21" height="21" viewBox="0 0 21 21" fill="none" xmlns="http://www.w3.org/2000/svg">
<path d="M10.1864 10.7444C10.6466 10.7444 11.0197 10.3713 11.0197 9.91109C11.0197 9.45086 10.6466 9.07776 10.1864 9.07776C9.72612 9.07776 9.35303 9.45086 9.35303 9.91109C9.35303 10.3713 9.72612 10.7444 10.1864 10.7444Z" fill="#464255"/>
<path d="M6.85286 10.7444C7.3131 10.7444 7.6862 10.3713 7.6862 9.91109C7.6862 9.45086 7.3131 9.07776 6.85286 9.07776C6.39263 9.07776 6.01953 9.45086 6.01953 9.91109C6.01953 10.3713 6.39263 10.7444 6.85286 10.7444Z" fill="#464255"/>
<path d="M13.5196 10.7444C13.9799 10.7444 14.3529 10.3713 14.3529 9.91109C14.3529 9.45086 13.9799 9.07776 13.5196 9.07776C13.0594 9.07776 12.6863 9.45086 12.6863 9.91109C12.6863 10.3713 13.0594 10.7444 13.5196 10.7444Z" fill="#464255"/>
<path d="M2.72784 18.9696C2.90226 19.0416 3.08917 19.0784 3.27785 19.078C3.46392 19.0789 3.64829 19.0425 3.82005 18.9709C3.99182 18.8994 4.14748 18.7941 4.27784 18.6613L6.36118 16.578H14.3528C15.4579 16.578 16.5177 16.139 17.2991 15.3576C18.0805 14.5762 18.5195 13.5164 18.5195 12.4113V7.4113C18.5195 6.30623 18.0805 5.24642 17.2991 4.46502C16.5177 3.68362 15.4579 3.24463 14.3528 3.24463H6.01951C4.91444 3.24463 3.85464 3.68362 3.07323 4.46502C2.29183 5.24642 1.85285 6.30623 1.85285 7.4113V17.653C1.8502 17.9348 1.93218 18.2109 2.08817 18.4457C2.24416 18.6804 2.46699 18.8629 2.72784 18.9696ZM3.51951 7.4113C3.51951 6.74825 3.7829 6.11237 4.25174 5.64353C4.72059 5.17469 5.35647 4.9113 6.01951 4.9113H14.3528C15.0159 4.9113 15.6518 5.17469 16.1206 5.64353C16.5895 6.11237 16.8528 6.74825 16.8528 7.4113V12.4113C16.8528 13.0743 16.5895 13.7102 16.1206 14.1791C15.6518 14.6479 15.0159 14.9113 14.3528 14.9113H6.01951C5.90984 14.9107 5.80112 14.9317 5.69959 14.9732C5.59806 15.0146 5.50571 15.0757 5.42784 15.153L3.51951 17.0696V7.4113Z" fill="#464255"/>
</svg>
