<svg width="16" height="18" viewBox="0 0 16 18" fill="none" xmlns="http://www.w3.org/2000/svg">
<path d="M0.686279 6.41097V16.411C0.686279 16.632 0.774077 16.8439 0.930357 17.0002C1.08664 17.1565 1.2986 17.2443 1.51961 17.2443H5.68628C5.90729 17.2443 6.11925 17.1565 6.27553 17.0002C6.43181 16.8439 6.51961 16.632 6.51961 16.411V10.5776H9.85295V16.411C9.85295 16.632 9.94074 16.8439 10.097 17.0002C10.2533 17.1565 10.4653 17.2443 10.6863 17.2443H14.8529C15.074 17.2443 15.2859 17.1565 15.4422 17.0002C15.5985 16.8439 15.6863 16.632 15.6863 16.411V6.41097C15.6863 6.2816 15.6562 6.15401 15.5983 6.03829C15.5404 5.92258 15.4564 5.82193 15.3529 5.7443L8.68628 0.744303C8.54203 0.636118 8.36659 0.577637 8.18628 0.577637C8.00597 0.577637 7.83052 0.636118 7.68628 0.744303L1.01961 5.7443C0.916116 5.82193 0.832113 5.92258 0.774257 6.03829C0.7164 6.15401 0.686279 6.2816 0.686279 6.41097ZM2.35295 6.82764L8.18628 2.45264L14.0196 6.82764V15.5776H11.5196V9.7443C11.5196 9.52329 11.4318 9.31133 11.2755 9.15505C11.1193 8.99877 10.9073 8.91097 10.6863 8.91097H5.68628C5.46527 8.91097 5.2533 8.99877 5.09702 9.15505C4.94074 9.31133 4.85295 9.52329 4.85295 9.7443V15.5776H2.35295V6.82764Z" fill="#00B074"/>
</svg>
