<svg width="60" height="47" viewBox="0 0 60 47" fill="none" xmlns="http://www.w3.org/2000/svg">
<path d="M23.9735 0.831177L0.656738 10.4496L23.9735 20.0679L47.2902 10.4496L23.9735 0.831177Z" fill="#00B074"/>
<path d="M14.5097 4.75537L10.1211 6.52515L33.4378 16.182L37.7882 14.3737L14.5097 4.75537Z" fill="#F7C604"/>
<path d="M0.656738 10.4496V36.9578L23.9735 46.5762V20.068L0.656738 10.4496Z" fill="#0A5239"/>
<path d="M47.2903 10.4496V36.9578L23.9736 46.5762V20.068L47.2903 10.4496Z" fill="#00D68D"/>
<path opacity="0.1" d="M47.2901 23.9923C46.6031 23.8384 45.9162 23.7615 45.1912 23.7615C39.5433 23.7615 34.9639 28.3783 34.9639 34.0724C34.9639 36.727 35.9561 39.1509 37.597 40.9591L47.2901 36.9579V23.9923Z" fill="#0C1E5B"/>
<path d="M33.4375 16.182V27.3009L37.7879 25.4926V14.3738L33.4375 16.182Z" fill="#F7C604"/>
<path d="M49.3508 43.6137C54.9992 43.6137 59.5781 38.9974 59.5781 33.3028C59.5781 27.6083 54.9992 22.9919 49.3508 22.9919C43.7025 22.9919 39.1235 27.6083 39.1235 33.3028C39.1235 38.9974 43.7025 43.6137 49.3508 43.6137Z" fill="#F9C267"/>
<path d="M48.2826 37.3041C47.9773 37.3041 47.7102 37.1887 47.4812 36.9578L44.2375 33.6876C43.7796 33.2259 43.7796 32.4949 44.2375 32.0717C44.6954 31.61 45.4205 31.61 45.8403 32.0717L48.2826 34.534L52.862 29.9172C53.32 29.4555 54.045 29.4555 54.4648 29.9172C54.9227 30.3789 54.9227 31.1099 54.4648 31.5331L49.084 36.9578C48.855 37.1887 48.5879 37.3041 48.2826 37.3041Z" fill="white"/>
<path d="M8.2128 33.3799L5.69414 28.1475L3.32812 31.2638L4.62562 31.8409V35.2266L6.7245 36.1884V32.7643L8.2128 33.3799Z" fill="#F2F5F3"/>
</svg>
