<svg width="6" height="6" viewBox="0 0 6 6" fill="none" xmlns="http://www.w3.org/2000/svg">
<g clip-path="url(#clip0_121_57)">
<path d="M0.92839 3.74451L2.57545 5.40504C2.6637 5.49398 2.78337 5.54395 2.90815 5.54395C3.03294 5.54395 3.15261 5.49398 3.24086 5.40504L4.88792 3.74451C4.97364 3.65504 5.02107 3.53519 5.02 3.4108C5.01893 3.2864 4.96944 3.16741 4.88219 3.07944C4.79494 2.99148 4.67691 2.94158 4.55352 2.9405C4.43013 2.93942 4.31126 2.98724 4.22251 3.07366L3.37874 3.92433L3.37874 0.799696C3.37874 0.673869 3.32916 0.553194 3.24091 0.46422C3.15266 0.375246 3.03296 0.325261 2.90816 0.325261C2.78335 0.325261 2.66365 0.375246 2.5754 0.46422C2.48715 0.553194 2.43757 0.673868 2.43757 0.799696L2.43757 3.92433L1.5938 3.07366C1.50505 2.98724 1.38618 2.93942 1.26279 2.9405C1.1394 2.94158 1.02137 2.99148 0.934122 3.07944C0.846872 3.16741 0.79738 3.2864 0.796308 3.4108C0.795236 3.53519 0.842668 3.65503 0.92839 3.74451Z" fill="#FF5B5B"/>
</g>
<defs>
<clipPath id="clip0_121_57">
<rect width="5.64706" height="5.69322" fill="white" transform="translate(5.73193 5.78125) rotate(-180)"/>
</clipPath>
</defs>
</svg>
