<svg width="18" height="14" viewBox="0 0 18 14" fill="none" xmlns="http://www.w3.org/2000/svg">
<path d="M16.0614 3.61963H15.1896L15.2958 2.55582C15.3218 2.29518 15.293 2.03199 15.211 1.78321C15.1291 1.53442 14.996 1.30556 14.8202 1.11137C14.6444 0.917178 14.4299 0.761969 14.1905 0.655744C13.9511 0.549519 13.6921 0.494635 13.4301 0.494629H3.69265C3.43067 0.494649 3.1716 0.549561 2.93214 0.655824C2.69268 0.762088 2.47814 0.917345 2.30234 1.11159C2.12655 1.30584 1.99341 1.53476 1.9115 1.7836C1.82959 2.03245 1.80073 2.2957 1.82677 2.55638L2.6827 12.1165C2.6995 12.2664 2.66659 11.9554 2.78633 12.5553H0.916953C0.751193 12.5553 0.592222 12.6212 0.475011 12.7384C0.357801 12.8556 0.291953 13.0145 0.291953 13.1803C0.291953 13.3461 0.357801 13.505 0.475011 13.6222C0.592222 13.7395 0.751193 13.8053 0.916953 13.8053L16.1864 13.9946C16.3522 13.9946 16.5111 13.9288 16.6283 13.8116C16.7456 13.6944 16.8114 13.5354 16.8114 13.3696C16.8114 13.2039 16.7456 13.0449 16.6283 12.9277C16.5111 12.8105 16.3522 12.7446 16.1864 12.7446H14.3171C14.3691 12.6032 14.4039 12.4561 14.4206 12.3064L14.6269 9.24463H16.0614C16.5585 9.24408 17.0351 9.04636 17.3866 8.69485C17.7381 8.34334 17.9359 7.86674 17.9364 7.36963V5.49463C17.9359 4.99752 17.7381 4.52092 17.3866 4.16941C17.0351 3.81789 16.5585 3.62017 16.0614 3.61963ZM4.84768 12.5553C4.69265 12.5558 4.543 12.4984 4.42807 12.3944C4.31313 12.2903 4.24118 12.1471 4.22631 11.9928L3.32424 2.58445C3.31553 2.49752 3.32514 2.40973 3.35243 2.32673C3.37972 2.24374 3.42409 2.16738 3.48269 2.10257C3.54129 2.03777 3.61281 1.98596 3.69265 1.95048C3.77249 1.915 3.85887 1.89664 3.94624 1.89658L13.2068 1.95048C13.2941 1.95054 13.3805 1.96889 13.4603 2.00434C13.5401 2.0398 13.6116 2.09157 13.6702 2.15633C13.7288 2.2211 13.7732 2.29741 13.8005 2.38037C13.8278 2.46332 13.8375 2.55108 13.8288 2.63798L13.2068 11.9934C13.1918 12.1477 13.1198 12.2908 13.0048 12.3947C12.8898 12.4986 12.7402 12.5559 12.5852 12.5553H4.84768ZM16.6864 7.36963C16.6863 7.53536 16.6204 7.69427 16.5032 7.81146C16.386 7.92865 16.2271 7.99453 16.0614 7.99463H14.752L15.0645 4.86963H16.0614C16.2271 4.86973 16.386 4.93561 16.5032 5.0528C16.6204 5.16999 16.6863 5.3289 16.6864 5.49463V7.36963Z" fill="#464255"/>
</svg>
