<svg width="60" height="44" viewBox="0 0 60 44" fill="none" xmlns="http://www.w3.org/2000/svg">
<path d="M6.65186 43.2747C9.81873 43.2747 12.4063 40.6627 12.4063 37.466V0.0410156H46.0061V37.466C46.0061 40.6627 43.4185 43.2747 40.2516 43.2747" fill="#00B074"/>
<path d="M34.4972 37.4659V33.0607H0.897461V37.4659C0.897461 40.6626 3.48503 43.2746 6.65191 43.2746H40.2517C37.0848 43.2746 34.4972 40.6626 34.4972 37.4659Z" fill="#0A5239"/>
<path d="M22.718 7.48682H18.4312V9.35807H22.718V7.48682Z" fill="#F7C604"/>
<path d="M39.2086 7.48682H26.0391V9.35807H39.2086V7.48682Z" fill="#F3F2F7"/>
<path d="M22.718 14.1141H18.4312V15.9854H22.718V14.1141Z" fill="#F7C604"/>
<path d="M39.2086 14.1141H26.0391V15.9854H39.2086V14.1141Z" fill="#F3F2F7"/>
<path d="M22.718 20.7417H18.4312V22.6129H22.718V20.7417Z" fill="#F7C604"/>
<path d="M39.2086 20.7417H26.0391V22.6129H39.2086V20.7417Z" fill="#F3F2F7"/>
<path d="M22.718 27.369H18.4312V29.2403H22.718V27.369Z" fill="#F7C604"/>
<path d="M39.2086 27.369H26.0391V29.2403H39.2086V27.369Z" fill="#F3F2F7"/>
<path opacity="0.1" d="M46.0063 27.681V5.42091C45.5428 5.34294 45.0408 5.30396 44.5387 5.30396C38.398 5.30396 33.416 10.3329 33.416 16.5315C33.416 22.73 38.398 27.7589 44.5387 27.7589C45.0408 27.7979 45.5428 27.759 46.0063 27.681Z" fill="#0C1E5B"/>
<path d="M48.4397 25.537C54.5826 25.537 59.5625 20.5102 59.5625 14.3094C59.5625 8.10856 54.5826 3.08179 48.4397 3.08179C42.2967 3.08179 37.3169 8.10856 37.3169 14.3094C37.3169 20.5102 42.2967 25.537 48.4397 25.537Z" fill="#F9C267"/>
<path d="M52.8062 9.73083L43.7266 18.8847M43.7266 9.73083L52.8062 18.8847" stroke="white" stroke-width="2"/>
<path d="M52.8062 9.73083L43.7266 18.8847M43.7266 9.73083L52.8062 18.8847" stroke="white" stroke-width="2"/>
</svg>
