<svg width="18" height="16" viewBox="0 0 18 16" fill="none" xmlns="http://www.w3.org/2000/svg">
<path d="M16.6866 1.91129H1.6866C1.21438 1.91129 0.853271 1.55018 0.853271 1.07796C0.853271 0.60574 1.21438 0.244629 1.6866 0.244629H16.6866C17.1588 0.244629 17.5199 0.60574 17.5199 1.07796C17.5199 1.55018 17.1588 1.91129 16.6866 1.91129Z" fill="#464255"/>
<path d="M11.6866 6.35575H1.6866C1.21438 6.35575 0.853271 5.99464 0.853271 5.52242C0.853271 5.0502 1.21438 4.68909 1.6866 4.68909H11.6866C12.1588 4.68909 12.5199 5.0502 12.5199 5.52242C12.5199 5.99464 12.1588 6.35575 11.6866 6.35575Z" fill="#464255"/>
<path d="M16.6866 10.8001H1.6866C1.21438 10.8001 0.853271 10.439 0.853271 9.96676C0.853271 9.49453 1.21438 9.13342 1.6866 9.13342H16.6866C17.1588 9.13342 17.5199 9.49453 17.5199 9.96676C17.5199 10.439 17.1588 10.8001 16.6866 10.8001Z" fill="#464255"/>
<path d="M11.6866 15.2446H1.6866C1.21438 15.2446 0.853271 14.8834 0.853271 14.4112C0.853271 13.939 1.21438 13.5779 1.6866 13.5779H11.6866C12.1588 13.5779 12.5199 13.939 12.5199 14.4112C12.5199 14.8834 12.1588 15.2446 11.6866 15.2446Z" fill="#464255"/>
</svg>
