<svg width="60" height="54" viewBox="0 0 60 54" fill="none" xmlns="http://www.w3.org/2000/svg">
<path d="M29.7135 11.9521C29.1197 11.9521 28.6532 11.4818 28.6532 10.8832V8.18958C28.6532 5.28219 26.3207 2.93063 23.4793 2.93063C22.0798 2.93063 20.8076 3.48645 19.7898 4.46983C18.7719 5.45322 18.263 6.77864 18.263 8.18958V10.8832C18.263 11.4818 17.7965 11.9521 17.2028 11.9521C16.6091 11.9521 16.1426 11.4818 16.1426 10.8832V8.18958C16.1426 6.22282 16.9059 4.38432 18.263 2.97339C19.6625 1.56245 21.4861 0.792847 23.4369 0.792847C27.4658 0.792847 30.7313 4.08503 30.7313 8.14682V10.8404C30.7737 11.4818 30.3072 11.9521 29.7135 11.9521Z" fill="#FFD497"/>
<path d="M46.3802 47.9952H15.464L10.3325 8.0614H44.2173L46.3802 47.9952Z" fill="#00B074"/>
<path d="M15.464 47.9952L8.12722 46.7125L0.748047 47.9952L2.95332 8.0614H13.2587L15.464 47.9952Z" fill="#0A5239"/>
<path d="M28.9076 21.8287C24.8788 21.8287 21.6133 18.5365 21.6133 14.4747V11.7811C21.6133 11.1825 22.0798 10.7122 22.6735 10.7122C23.2672 10.7122 23.7337 11.1825 23.7337 11.7811V14.4747C23.7337 17.3821 26.0662 19.6909 28.9076 19.6909C31.749 19.6909 34.1239 17.3393 34.1239 14.4319V11.7383C34.1239 11.1397 34.5904 10.6694 35.1842 10.6694C35.7779 10.6694 36.2444 11.1397 36.2444 11.7383V14.4319C36.2444 18.5365 32.9789 21.8287 28.9076 21.8287Z" fill="white"/>
<path opacity="0.1" d="M30.8164 42.5224C30.8164 44.4891 31.3253 46.3704 32.2159 47.9951H46.4229L45.5323 31.5769C44.4721 31.2349 43.3695 31.0638 42.2244 31.0638C35.9055 31.0638 30.8164 36.1945 30.8164 42.5224Z" fill="#0C1E5B"/>
<path d="M48.119 53.9809C54.3961 53.9809 59.4846 48.8507 59.4846 42.5224C59.4846 36.194 54.3961 31.0638 48.119 31.0638C41.842 31.0638 36.7534 36.194 36.7534 42.5224C36.7534 48.8507 41.842 53.9809 48.119 53.9809Z" fill="#FFC66A"/>
<path d="M46.9317 46.9691C46.5925 46.9691 46.2956 46.8409 46.0411 46.5843L42.4364 42.9501C41.9275 42.437 41.9275 41.6247 42.4364 41.1544C42.9453 40.6413 43.7511 40.6413 44.2176 41.1544L46.9317 43.8907L52.0208 38.76C52.5297 38.247 53.3355 38.247 53.802 38.76C54.3109 39.2731 54.3109 40.0855 53.802 40.5558L47.8223 46.5843C47.5679 46.8409 47.2286 46.9691 46.9317 46.9691Z" fill="white"/>
</svg>
