<svg width="7" height="6" viewBox="0 0 7 6" fill="none" xmlns="http://www.w3.org/2000/svg">
<g clip-path="url(#clip0_121_49)">
<path d="M1.39323 2.79566C1.48148 2.88461 1.60116 2.93457 1.72594 2.93457C1.85072 2.93457 1.9704 2.88461 2.05865 2.79566L2.90241 1.945L2.90241 5.06963C2.90241 5.19546 2.95199 5.31613 3.04024 5.40511C3.12849 5.49408 3.24819 5.54407 3.373 5.54407C3.49781 5.54407 3.6175 5.49408 3.70575 5.40511C3.79401 5.31613 3.84359 5.19546 3.84359 5.06963L3.84359 1.945L4.68735 2.79566C4.77611 2.88209 4.89498 2.92991 5.01836 2.92883C5.14175 2.92775 5.25978 2.87785 5.34703 2.78989C5.43428 2.70192 5.48377 2.58293 5.48485 2.45853C5.48592 2.33414 5.43849 2.21429 5.35276 2.12481L3.7057 0.464291C3.61746 0.375348 3.49778 0.325383 3.373 0.325383C3.24822 0.325383 3.12854 0.375348 3.04029 0.464291L1.39323 2.12481C1.30501 2.21378 1.25545 2.33444 1.25545 2.46024C1.25545 2.58604 1.30501 2.70669 1.39323 2.79566Z" fill="#00A389"/>
</g>
<defs>
<clipPath id="clip0_121_49">
<rect width="5.64706" height="5.69322" fill="white" transform="translate(6.19678 5.78125) rotate(-180)"/>
</clipPath>
</defs>
</svg>
