<svg width="18" height="16" viewBox="0 0 18 16" fill="none" xmlns="http://www.w3.org/2000/svg">
<path d="M3.35278 15.2446H15.0195C15.6825 15.2446 16.3184 14.9812 16.7872 14.5124C17.2561 14.0436 17.5195 13.4077 17.5195 12.7446V2.74463C17.5195 2.08159 17.2561 1.4457 16.7872 0.976862C16.3184 0.508021 15.6825 0.244629 15.0195 0.244629H3.35278C2.68974 0.244629 2.05386 0.508021 1.58502 0.976862C1.11618 1.4457 0.852783 2.08159 0.852783 2.74463V12.7446C0.852783 13.4077 1.11618 14.0436 1.58502 14.5124C2.05386 14.9812 2.68974 15.2446 3.35278 15.2446ZM15.8528 8.57796H11.6861V6.91129H15.8528V8.57796ZM2.51945 2.74463C2.51945 2.52361 2.60725 2.31165 2.76353 2.15537C2.91981 1.99909 3.13177 1.9113 3.35278 1.9113H15.0195C15.2405 1.9113 15.4524 1.99909 15.6087 2.15537C15.765 2.31165 15.8528 2.52361 15.8528 2.74463V5.24463H10.8528C10.6318 5.24463 10.4198 5.33243 10.2635 5.48871C10.1072 5.64499 10.0195 5.85695 10.0195 6.07796V9.41129C10.0195 9.63231 10.1072 9.84427 10.2635 10.0006C10.4198 10.1568 10.6318 10.2446 10.8528 10.2446H15.8528V12.7446C15.8528 12.9656 15.765 13.1776 15.6087 13.3339C15.4524 13.4902 15.2405 13.578 15.0195 13.578H3.35278C3.13177 13.578 2.91981 13.4902 2.76353 13.3339C2.60725 13.1776 2.51945 12.9656 2.51945 12.7446V2.74463Z" fill="#464255"/>
</svg>
